HIERARCHY
ROOT Hips
{
	OFFSET 0.000000 0.000000 0.000000
	CHANNELS 6 Xposition Yposition Zposition Xrotation Yrotation Zrotation
	JOINT LeftUpLeg_virtual
	{
		OFFSET 0.000000 0.000000 0.000000
		CHANNELS 3 Xrotation Yrotation Zrotation
		JOINT LeftUpLeg
		{
			OFFSET 11.394100 -6.187798 -0.413800
			CHANNELS 3 Xrotation Yrotation Zrotation
			JOINT LeftLeg
			{
				OFFSET 0.430247 -32.302673 3.732800
				CHANNELS 3 Xrotation Yrotation Zrotation
				JOINT LeftFoot
				{
					OFFSET -0.430247 -48.264931 -6.423300
					CHANNELS 3 Xrotation Yrotation Zrotation
					JOINT LeftToeBase
					{
						OFFSET 4.230900 -16.068199 23.438400
						CHANNELS 3 Xrotation Yrotation Zrotation
						JOINT LeftToe_End
						{
							OFFSET 4.510700 0.695400 19.974600
							CHANNELS 3 Xrotation Yrotation Zrotation
							End Site
							{
								OFFSET 0 0 0
							}
						}
					}
				}
			}
		}
	}
	JOINT RightUpLeg_virtual
	{
		OFFSET 0.000000 0.000000 0.000000
		CHANNELS 3 Xrotation Yrotation Zrotation
		JOINT RightUpLeg
		{
			OFFSET -11.333700 -6.187798 -0.413800
			CHANNELS 3 Xrotation Yrotation Zrotation
			JOINT RightLeg
			{
				OFFSET -0.430392 -32.302628 3.733000
				CHANNELS 3 Xrotation Yrotation Zrotation
				JOINT RightFoot
				{
					OFFSET 0.430392 -48.264973 -6.423500
					CHANNELS 3 Xrotation Yrotation Zrotation
					JOINT RightToeBase
					{
						OFFSET -4.230900 -16.068199 23.438400
						CHANNELS 3 Xrotation Yrotation Zrotation
						JOINT RightToe_End
						{
							OFFSET -4.510700 0.695400 19.974600
							CHANNELS 3 Xrotation Yrotation Zrotation
							End Site
							{
								OFFSET 0 0 0
							}
						}
					}
				}
			}
		}
	}
	JOINT Spine_virtual
	{
		OFFSET 0.000000 0.000000 0.000000
		CHANNELS 3 Xrotation Yrotation Zrotation
		JOINT Spine
		{
			OFFSET -0.002400 12.777504 0.315300
			CHANNELS 3 Xrotation Yrotation Zrotation
			JOINT Spine1
			{
				OFFSET -0.002067 5.816869 0.032633
				CHANNELS 3 Xrotation Yrotation Zrotation
				JOINT Spine1_split
				{
					OFFSET -0.002067 5.816869 0.032633
					CHANNELS 3 Xrotation Yrotation Zrotation
					JOINT Spine2
					{
						OFFSET -0.002067 5.816869 0.032633
						CHANNELS 3 Xrotation Yrotation Zrotation
						JOINT Neck_virtual
						{
							OFFSET 0.000000 0.000000 0.000000
							CHANNELS 3 Xrotation Yrotation Zrotation
							JOINT Neck
							{
								OFFSET -0.003700 21.199493 -0.826900
								CHANNELS 3 Xrotation Yrotation Zrotation
								JOINT Head
								{
									OFFSET 0.000000 20.442200 4.834800
									CHANNELS 3 Xrotation Yrotation Zrotation
									JOINT HeadTop_End
									{
										OFFSET 0.000000 34.668396 4.968400
										CHANNELS 3 Xrotation Yrotation Zrotation
										End Site
										{
											OFFSET 0 0 0
										}
									}
								}
							}
						}
						JOINT LeftShoulder_virtual
						{
							OFFSET 0.000000 0.000000 0.000000
							CHANNELS 3 Xrotation Yrotation Zrotation
							JOINT LeftShoulder
							{
								OFFSET 3.288150 8.794197 -1.372250
								CHANNELS 3 Xrotation Yrotation Zrotation
								JOINT LeftShoulder_split
								{
									OFFSET 3.288150 8.794197 -1.372250
									CHANNELS 3 Xrotation Yrotation Zrotation
									JOINT LeftArm
									{
										OFFSET 11.953299 -2.279007 -0.146200
										CHANNELS 3 Xrotation Yrotation Zrotation
										JOINT LeftForeArm
										{
											OFFSET 18.448900 0.000000 0.000000
											CHANNELS 3 Xrotation Yrotation Zrotation
											JOINT LeftHand
											{
												OFFSET 29.527798 0.000000 0.000000
												CHANNELS 3 Xrotation Yrotation Zrotation
												End Site
												{
													OFFSET 0 0 0
												}
											}
										}
									}
								}
							}
						}
						JOINT RightShoulder_virtual
						{
							OFFSET 0.000000 0.000000 0.000000
							CHANNELS 3 Xrotation Yrotation Zrotation
							JOINT RightShoulder
							{
								OFFSET -3.249400 8.794197 -1.372250
								CHANNELS 3 Xrotation Yrotation Zrotation
								JOINT RightShoulder_split
								{
									OFFSET -3.249400 8.794197 -1.372250
									CHANNELS 3 Xrotation Yrotation Zrotation
									JOINT RightArm
									{
										OFFSET -11.953299 -2.279007 -0.146200
										CHANNELS 3 Xrotation Yrotation Zrotation
										JOINT RightForeArm
										{
											OFFSET -18.448900 0.000000 0.000000
											CHANNELS 3 Xrotation Yrotation Zrotation
											JOINT RightHand
											{
												OFFSET -29.527802 0.000000 0.000000
												CHANNELS 3 Xrotation Yrotation Zrotation
												End Site
												{
													OFFSET 0 0 0
												}
											}
										}
									}
								}
							}
						}
					}
				}
			}
		}
	}
}
MOTION
Frames: 6
Frame Time: 0.03333333
-11.850513 80.427292 -120.020691 0.000000 0.000000 0.000000 23.862622 -67.222852 23.639201 -59.157368 -22.435968 19.159849 40.598965 -17.522842 1.781571 27.580528 -1.557582 -22.799805 -17.326863 1.313855 -10.046648 0.000000 0.000000 0.000000 23.813712 -66.226361 23.615236 -44.756341 -2.549232 -25.064223 51.274387 9.163944 -1.376670 -7.504936 -8.781625 24.143827 1.390115 9.658096 -3.073929 0.000000 0.000000 0.000000 17.053729 -56.009337 16.293543 0.409540 12.391339 -0.554292 3.382895 13.472937 2.863620 0.101552 -1.790650 0.481914 0.000000 0.000000 0.000000 8.617913 16.675705 2.947874 -7.721054 27.712955 0.716521 -46.125121 -24.594149 -77.259767 0.000000 0.000000 0.000000 8.185155 11.947218 5.434253 -1.350787 -11.534086 3.921016 -9.594753 1.085058 1.420874 -50.396670 -8.384673 -63.972692 149.962636 -72.433780 150.751250 0.000000 0.000000 0.000000 2.135169 10.933171 6.463364 -11.475210 0.527416 -18.675440 -56.059413 -18.764118 -13.302922 -96.297054 37.458523 125.669375 -8.968455 13.719607 20.432373 0.000000 0.000000 0.000000 
-10.111970 81.522842 -125.761963 0.000000 0.000000 0.000000 25.012556 -68.060083 24.123397 -61.372296 -20.613598 19.497308 40.050279 -15.999061 1.918284 28.961983 -2.096426 -22.065867 -18.132262 0.897741 -8.578658 0.000000 0.000000 0.000000 24.888233 -65.765610 23.342580 -44.553758 -3.001879 -22.659994 53.090678 9.068366 -1.126818 -7.834296 -6.829213 20.552092 -1.779138 9.883696 0.472097 0.000000 0.000000 0.000000 18.286182 -56.282603 16.097142 1.384273 12.300897 -0.654236 3.567551 12.985822 2.766690 0.125428 -1.726108 0.506120 0.000000 0.000000 0.000000 8.360560 16.162534 3.100867 -10.820571 27.427164 1.835224 -45.770068 -25.736793 -77.705081 0.000000 0.000000 0.000000 7.880319 11.523352 5.664515 -1.106127 -11.320897 4.723249 -9.781555 0.988335 0.559273 -49.730440 -7.597225 -64.357061 154.501119 -69.321939 156.252489 0.000000 0.000000 0.000000 1.594889 10.221186 6.381099 -11.755276 -0.648432 -18.160073 -56.144763 -18.795755 -14.333280 -95.505996 36.229816 125.367371 -10.463355 16.985198 21.515818 0.000000 0.000000 0.000000 
-8.125916 82.011101 -129.659988 0.000000 0.000000 0.000000 23.626584 -67.012905 21.817564 -65.155640 -19.241585 18.879273 42.648155 -14.537766 2.720243 29.399696 -3.030604 -21.130276 -21.584603 0.729287 -7.526378 0.000000 0.000000 0.000000 23.937663 -64.897575 21.309792 -44.634057 -3.130174 -20.438048 53.710634 8.911653 -0.975712 -7.568486 -5.096271 17.590283 -3.404731 9.709248 3.205170 0.000000 0.000000 0.000000 19.122288 -56.543086 15.468311 2.141760 12.353773 -0.484940 3.811166 12.515215 2.666266 0.162007 -1.623463 0.511028 0.000000 0.000000 0.000000 8.207368 15.618800 3.223399 -13.904577 26.922039 3.521337 -45.880700 -27.432753 -78.040355 0.000000 0.000000 0.000000 7.553347 11.082317 5.752980 -0.874931 -10.735539 5.912391 -10.280568 1.520784 -0.443014 -49.871804 -6.773044 -65.055045 157.153418 -66.940977 160.203917 0.000000 0.000000 0.000000 1.101610 9.550500 6.298921 -12.031707 -1.693716 -17.703751 -56.372416 -18.830919 -14.404324 -94.827683 35.748414 125.027938 -12.091332 19.946131 22.841952 0.000000 0.000000 0.000000 
-6.279143 82.025696 -132.073029 0.000000 0.000000 0.000000 21.176918 -64.658081 18.381559 -69.310649 -18.340455 17.745147 46.299072 -13.413476 3.939150 28.926114 -4.179503 -20.548349 -24.248594 0.934790 -7.611490 0.000000 0.000000 0.000000 22.242385 -64.231099 18.854321 -45.310512 -3.162562 -19.057922 53.308978 8.921170 -0.921731 -5.988842 -3.577605 16.245366 -3.983181 9.390597 4.001490 0.000000 0.000000 0.000000 19.614259 -56.692565 14.685397 2.588676 12.600543 -0.067481 4.125328 12.120088 2.494970 0.163506 -1.535212 0.457976 0.000000 0.000000 0.000000 8.128655 15.131534 3.277808 -16.638486 26.349307 5.448411 -46.490991 -29.316114 -78.363273 0.000000 0.000000 0.000000 7.221776 10.673492 5.642177 -0.744356 -9.735094 7.247211 -10.874263 2.700359 -1.469967 -50.500052 -6.043485 -65.934521 158.520754 -65.385544 162.998080 0.000000 0.000000 0.000000 0.727541 8.993040 6.195241 -12.315785 -2.742756 -17.429850 -56.540835 -19.089223 -13.511940 -94.306123 36.113836 124.971370 -13.583885 22.075494 24.181057 0.000000 0.000000 0.000000 
-4.734924 81.739197 -133.387802 0.000000 0.000000 0.000000 19.255895 -62.279133 15.507099 -72.344688 -17.910107 16.662767 48.725279 -13.389668 5.491336 28.128117 -5.917792 -21.050139 -25.303624 1.304491 -7.931517 0.000000 0.000000 0.000000 20.761053 -64.410576 16.957394 -46.585445 -3.028182 -18.807674 52.959241 9.383339 -1.072452 -3.825172 -2.218414 17.025037 -3.740832 9.058300 2.187751 0.000000 0.000000 0.000000 19.726568 -56.915720 14.003183 2.802808 12.968531 0.382920 4.544239 11.841487 2.185575 0.158378 -1.493334 0.388542 0.000000 0.000000 0.000000 8.161154 14.747386 3.254778 -18.953235 25.887139 7.474949 -47.401731 -30.820778 -78.651520 0.000000 0.000000 0.000000 6.875245 10.359345 5.323665 -0.780520 -8.442711 8.387038 -11.010575 3.980780 -2.259429 -51.400561 -5.613032 -66.972498 158.930716 -64.563087 164.706242 0.000000 0.000000 0.000000 0.542362 8.608015 6.069081 -12.596747 -3.818957 -17.409999 -56.661122 -19.543400 -11.654425 -94.001032 37.167772 125.274644 -14.726364 23.260114 25.322972 0.000000 0.000000 0.000000 
-3.729878 81.286255 -133.977707 0.000000 0.000000 0.000000 18.138158 -60.717602 13.772200 -73.415463 -17.494742 15.907577 49.000621 -13.951424 6.933909 27.029017 -7.336914 -21.943019 -23.910899 1.567175 -8.258976 0.000000 0.000000 0.000000 19.433994 -64.764277 15.475598 -47.838887 -2.750561 -19.358394 53.181058 10.045536 -1.390157 -2.611341 -1.293380 19.447302 -3.303616 8.772499 -1.868155 0.000000 0.000000 0.000000 19.413187 -57.200174 13.471596 2.806626 13.368601 0.710193 5.021770 11.678850 1.796226 0.165476 -1.540419 0.341454 0.000000 0.000000 0.000000 8.338521 14.476651 3.161046 -20.845310 25.525380 9.505275 -48.406312 -31.547623 -78.830970 0.000000 0.000000 0.000000 6.554958 10.169037 4.864747 -0.994144 -7.068487 9.222062 -10.638889 4.992975 -2.673008 -52.399937 -5.597240 -68.118522 158.524756 -64.296088 165.304744 0.000000 0.000000 0.000000 0.592866 8.398832 5.926985 -12.915583 -5.046439 -17.714656 -56.783112 -20.013349 -9.406909 -94.024541 38.461321 125.774819 -15.509463 23.765785 26.180708 0.000000 0.000000 0.000000 
